<?xml version="1.0" encoding="UTF-8" standalone="no"?>
<!DOCTYPE svg PUBLIC "-//W3C//DTD SVG 1.1//EN"
 "http://www.w3.org/Graphics/SVG/1.1/DTD/svg11.dtd">
<!-- Generated by graphviz version 2.50.0 (0)
 -->
<!-- Pages: 1 -->
<svg width="414pt" height="548pt"
 viewBox="0.00 0.00 414.00 548.00" xmlns="http://www.w3.org/2000/svg" xmlns:xlink="http://www.w3.org/1999/xlink">
<g id="graph0" class="graph" transform="scale(1 1) rotate(0) translate(4 544)">
<polygon fill="white" stroke="transparent" points="-4,4 -4,-544 410,-544 410,4 -4,4"/>
<!-- HF -->
<g id="node1" class="node">
<title>HF</title>
<ellipse fill="none" stroke="black" cx="321" cy="-522" rx="27" ry="18"/>
<text text-anchor="middle" x="321" y="-518.3" font-family="Times,serif" font-size="14.00">HF</text>
</g>
<!-- qu -->
<g id="node2" class="node">
<title>qu</title>
<ellipse fill="none" stroke="black" cx="266" cy="-450" rx="27" ry="18"/>
<text text-anchor="middle" x="266" y="-446.3" font-family="Times,serif" font-size="14.00">qu</text>
</g>
<!-- HF&#45;&#45;qu -->
<g id="edge1" class="edge">
<title>HF&#45;&#45;qu</title>
<path fill="none" stroke="black" d="M309.07,-505.81C299.84,-494.07 287.13,-477.89 277.91,-466.16"/>
</g>
<!-- start -->
<g id="node10" class="node">
<title>start</title>
<ellipse fill="none" stroke="black" cx="313" cy="-162" rx="33.29" ry="18"/>
<text text-anchor="middle" x="313" y="-158.3" font-family="Times,serif" font-size="14.00">start</text>
</g>
<!-- HF&#45;&#45;start -->
<g id="edge12" class="edge">
<title>HF&#45;&#45;start</title>
<path fill="none" stroke="black" d="M330.06,-504.96C343.72,-479.23 368,-426.78 368,-379 368,-379 368,-379 368,-305 368,-256.62 339.89,-204.85 323.87,-179.25"/>
</g>
<!-- CF -->
<g id="node4" class="node">
<title>CF</title>
<ellipse fill="none" stroke="black" cx="167" cy="-378" rx="27" ry="18"/>
<text text-anchor="middle" x="167" y="-374.3" font-family="Times,serif" font-size="14.00">CF</text>
</g>
<!-- qu&#45;&#45;CF -->
<g id="edge6" class="edge">
<title>qu&#45;&#45;CF</title>
<path fill="none" stroke="black" d="M247.84,-436.16C229.98,-423.53 202.87,-404.36 185.04,-391.76"/>
</g>
<!-- ae -->
<g id="node5" class="node">
<title>ae</title>
<ellipse fill="none" stroke="black" cx="313" cy="-306" rx="27" ry="18"/>
<text text-anchor="middle" x="313" y="-302.3" font-family="Times,serif" font-size="14.00">ae</text>
</g>
<!-- qu&#45;&#45;ae -->
<g id="edge10" class="edge">
<title>qu&#45;&#45;ae</title>
<path fill="none" stroke="black" d="M271.58,-432.15C280.62,-404.82 298.39,-351.14 307.43,-323.82"/>
</g>
<!-- end -->
<g id="node3" class="node">
<title>end</title>
<ellipse fill="none" stroke="black" cx="92" cy="-90" rx="27.9" ry="18"/>
<text text-anchor="middle" x="92" y="-86.3" font-family="Times,serif" font-size="14.00">end</text>
</g>
<!-- end&#45;&#45;CF -->
<g id="edge2" class="edge">
<title>end&#45;&#45;CF</title>
<path fill="none" stroke="black" d="M82.76,-107.19C61.19,-147.34 12.61,-253.34 57,-324 75.27,-353.08 114.47,-366.58 140.79,-372.57"/>
</g>
<!-- vi -->
<g id="node6" class="node">
<title>vi</title>
<ellipse fill="none" stroke="black" cx="167" cy="-18" rx="27" ry="18"/>
<text text-anchor="middle" x="167" y="-14.3" font-family="Times,serif" font-size="14.00">vi</text>
</g>
<!-- end&#45;&#45;vi -->
<g id="edge15" class="edge">
<title>end&#45;&#45;vi</title>
<path fill="none" stroke="black" d="M107.18,-74.83C120.19,-62.69 138.84,-45.28 151.85,-33.14"/>
</g>
<!-- CF&#45;&#45;ae -->
<g id="edge3" class="edge">
<title>CF&#45;&#45;ae</title>
<path fill="none" stroke="black" d="M188.23,-366.82C215.91,-353.55 264.05,-330.47 291.74,-317.19"/>
</g>
<!-- CF&#45;&#45;vi -->
<g id="edge9" class="edge">
<title>CF&#45;&#45;vi</title>
<path fill="none" stroke="black" d="M170.75,-360.05C176.29,-333.52 186,-280.52 186,-235 186,-235 186,-235 186,-161 186,-115.48 176.29,-62.48 170.75,-35.95"/>
</g>
<!-- vt -->
<g id="node7" class="node">
<title>vt</title>
<ellipse fill="none" stroke="black" cx="131" cy="-162" rx="27" ry="18"/>
<text text-anchor="middle" x="131" y="-158.3" font-family="Times,serif" font-size="14.00">vt</text>
</g>
<!-- CF&#45;&#45;vt -->
<g id="edge20" class="edge">
<title>CF&#45;&#45;vt</title>
<path fill="none" stroke="black" d="M164.11,-359.85C157.36,-319.68 140.57,-219.89 133.85,-179.94"/>
</g>
<!-- pk -->
<g id="node9" class="node">
<title>pk</title>
<ellipse fill="none" stroke="black" cx="93" cy="-306" rx="27" ry="18"/>
<text text-anchor="middle" x="93" y="-302.3" font-family="Times,serif" font-size="14.00">pk</text>
</g>
<!-- CF&#45;&#45;pk -->
<g id="edge8" class="edge">
<title>CF&#45;&#45;pk</title>
<path fill="none" stroke="black" d="M152.02,-362.83C139.19,-350.69 120.78,-333.28 107.95,-321.14"/>
</g>
<!-- ae&#45;&#45;HF -->
<g id="edge14" class="edge">
<title>ae&#45;&#45;HF</title>
<path fill="none" stroke="black" d="M313.64,-324.23C315.15,-364.38 318.86,-463.78 320.36,-503.85"/>
</g>
<!-- hu -->
<g id="node8" class="node">
<title>hu</title>
<ellipse fill="none" stroke="black" cx="249" cy="-234" rx="27" ry="18"/>
<text text-anchor="middle" x="249" y="-230.3" font-family="Times,serif" font-size="14.00">hu</text>
</g>
<!-- ae&#45;&#45;hu -->
<g id="edge11" class="edge">
<title>ae&#45;&#45;hu</title>
<path fill="none" stroke="black" d="M299.43,-290.15C288.57,-278.28 273.41,-261.7 262.55,-249.82"/>
</g>
<!-- vi&#45;&#45;HF -->
<g id="edge4" class="edge">
<title>vi&#45;&#45;HF</title>
<path fill="none" stroke="black" d="M193.49,-22.14C255.72,-31.14 406,-63.02 406,-161 406,-379 406,-379 406,-379 406,-432.44 361.13,-483.19 336.59,-506.94"/>
</g>
<!-- vi&#45;&#45;vt -->
<g id="edge16" class="edge">
<title>vi&#45;&#45;vt</title>
<path fill="none" stroke="black" d="M162.73,-35.82C155.81,-63.14 142.2,-116.82 135.27,-144.15"/>
</g>
<!-- vt&#45;&#45;HF -->
<g id="edge5" class="edge">
<title>vt&#45;&#45;HF</title>
<path fill="none" stroke="black" d="M109.95,-173.42C72.92,-193.42 0,-240.94 0,-305 0,-379 0,-379 0,-379 0,-507.12 216.52,-520.58 293.91,-521.29"/>
</g>
<!-- vt&#45;&#45;end -->
<g id="edge13" class="edge">
<title>vt&#45;&#45;end</title>
<path fill="none" stroke="black" d="M121.95,-144.76C115.65,-133.46 107.29,-118.44 101,-107.15"/>
</g>
<!-- hu&#45;&#45;vt -->
<g id="edge7" class="edge">
<title>hu&#45;&#45;vt</title>
<path fill="none" stroke="black" d="M229.51,-221.44C207.65,-208.47 172.39,-187.55 150.51,-174.58"/>
</g>
<!-- hu&#45;&#45;start -->
<g id="edge17" class="edge">
<title>hu&#45;&#45;start</title>
<path fill="none" stroke="black" d="M262.57,-218.15C273.14,-206.6 287.77,-190.59 298.56,-178.8"/>
</g>
<!-- start&#45;&#45;ae -->
<g id="edge18" class="edge">
<title>start&#45;&#45;ae</title>
<path fill="none" stroke="black" d="M313,-180.19C313,-207.52 313,-260.58 313,-287.87"/>
</g>
<!-- CS -->
<g id="node11" class="node">
<title>CS</title>
<ellipse fill="none" stroke="black" cx="241" cy="-306" rx="27" ry="18"/>
<text text-anchor="middle" x="241" y="-302.3" font-family="Times,serif" font-size="14.00">CS</text>
</g>
<!-- CS&#45;&#45;hu -->
<g id="edge19" class="edge">
<title>CS&#45;&#45;hu</title>
<path fill="none" stroke="black" d="M242.98,-287.7C244.22,-276.85 245.81,-262.92 247.05,-252.1"/>
</g>
</g>
</svg>
